<svg xmlns="http://www.w3.org/2000/svg" viewBox="0 0 42.78 42.78"><defs><style>.cls-1{fill:#ffbf0f;}.cls-2{fill:#fff;}</style></defs><g id="Layer_2" data-name="Layer 2"><g id="Capa_1" data-name="Capa 1"><circle class="cls-1" cx="21.39" cy="21.39" r="21.39"/><path class="cls-2" d="M22.58,25.23A3.66,3.66,0,0,1,22.19,27a3.54,3.54,0,0,1-1.08,1.23,4.73,4.73,0,0,1-1.58.76,6.65,6.65,0,0,1-1.92.26H10.16V13.79h8.25a3.09,3.09,0,0,1,1.46.35A3.57,3.57,0,0,1,21,15a4.11,4.11,0,0,1,.71,1.26,4.38,4.38,0,0,1,.25,1.42,4.19,4.19,0,0,1-.57,2.12,3.37,3.37,0,0,1-1.65,1.46,4,4,0,0,1,2.1,1.4A4.07,4.07,0,0,1,22.58,25.23Zm-9.42-8.88v3.89h4a1.79,1.79,0,0,0,1.29-.52A1.92,1.92,0,0,0,19,18.28a2,2,0,0,0-.49-1.41,1.63,1.63,0,0,0-1.21-.52Zm6.4,8.32a2.4,2.4,0,0,0-.14-.8,2.15,2.15,0,0,0-.38-.66,1.82,1.82,0,0,0-.56-.44,1.59,1.59,0,0,0-.72-.17h-4.6v4.06h4.45a2,2,0,0,0,.77-.15,1.89,1.89,0,0,0,.62-.42,2.13,2.13,0,0,0,.41-.64A2.08,2.08,0,0,0,19.56,24.67Z"/><path class="cls-2" d="M29.07,29.2a6.15,6.15,0,0,1-2.4-.45,5.4,5.4,0,0,1-3-3,5.88,5.88,0,0,1-.41-2.16,6.25,6.25,0,0,1,.4-2.22,5.4,5.4,0,0,1,3-3.09,6.26,6.26,0,0,1,2.43-.46,6.13,6.13,0,0,1,2.41.46A5.71,5.71,0,0,1,34.82,24a2.42,2.42,0,0,1,0,.42H26.25a3.35,3.35,0,0,0,.31,1.15,2.86,2.86,0,0,0,.66.87,2.74,2.74,0,0,0,.9.54,2.91,2.91,0,0,0,1.05.19,3.19,3.19,0,0,0,1.59-.41,2.13,2.13,0,0,0,1-1.08l2.42.67a5,5,0,0,1-2,2.07A6,6,0,0,1,29.07,29.2Zm2.86-6.64a2.94,2.94,0,0,0-.92-2,2.78,2.78,0,0,0-2-.75A2.91,2.91,0,0,0,28,20a2.82,2.82,0,0,0-.87.56,3,3,0,0,0-.62.86,3.13,3.13,0,0,0-.28,1.12Z"/><path class="cls-2" d="M25.36,14.52h7.37v1.83H25.36Z"/></g></g></svg>