<svg xmlns="http://www.w3.org/2000/svg" viewBox="0 0 42.78 42.78"><defs><style>.cls-1{fill:#ffbf0f;}.cls-2,.cls-3{fill:#fff;}.cls-3{fill-rule:evenodd;}</style></defs><g id="Layer_2" data-name="Layer 2"><g id="Capa_1" data-name="Capa 1"><circle class="cls-1" cx="21.39" cy="21.39" r="21.39" transform="translate(-6.6 9.92) rotate(-22.71)"/><path class="cls-2" d="M9.83,33.49l1.79-6.65a12.31,12.31,0,1,1,4.9,4.86Zm7-4.28.42.25a10,10,0,1,0-3.42-3.39l.26.42-1,3.72Z"/><path class="cls-3" d="M26.93,22.61a2.05,2.05,0,0,0-1.76-.39c-.46.18-.75.9-1,1.26a.45.45,0,0,1-.57.13,8,8,0,0,1-4-3.41.5.5,0,0,1,.06-.67,2.67,2.67,0,0,0,.73-1.17A2.64,2.64,0,0,0,20,17c-.24-.51-.5-1.25-1-1.54a1.42,1.42,0,0,0-1.53.22,3.11,3.11,0,0,0-1.07,2.46,3.47,3.47,0,0,0,.1.78,6.53,6.53,0,0,0,.74,1.72c.24.4.5.8.78,1.18a12,12,0,0,0,3.38,3.14,9.93,9.93,0,0,0,2.11,1,4.63,4.63,0,0,0,2.46.39,3,3,0,0,0,2.22-1.65,1.47,1.47,0,0,0,.11-.85C28.19,23.24,27.4,22.89,26.93,22.61Z"/></g></g></svg>