<svg xmlns="http://www.w3.org/2000/svg" viewBox="0 0 42.78 42.78"><defs><style>.cls-1{fill:#ffbf0f;}.cls-2{fill:#fff;}</style></defs><g id="Layer_2" data-name="Layer 2"><g id="Capa_1" data-name="Capa 1"><path class="cls-1" d="M42.78,21.39A21.39,21.39,0,1,0,18.05,42.52v-15H12.62V21.39h5.43V16.68c0-5.36,3.19-8.33,8.07-8.33a32.59,32.59,0,0,1,4.79.42V14H28.22c-2.66,0-3.49,1.64-3.49,3.34v4h5.93l-.95,6.18h-5v15A21.4,21.4,0,0,0,42.78,21.39Z"/><path class="cls-2" d="M29.71,27.57l.95-6.18H24.73v-4c0-1.7.83-3.34,3.49-3.34h2.69V8.77a32.59,32.59,0,0,0-4.79-.42c-4.88,0-8.07,3-8.07,8.33v4.71H12.62v6.18h5.43v15a21.58,21.58,0,0,0,6.68,0v-15Z"/></g></g></svg>