<svg xmlns="http://www.w3.org/2000/svg" viewBox="0 0 42.78 42.78"><defs><style>.cls-1{fill:#ffbf0f;}.cls-2{fill:#fff;}</style></defs><g id="Layer_2" data-name="Layer 2"><g id="Capa_1" data-name="Capa 1"><circle class="cls-1" cx="21.39" cy="21.39" r="21.39"/><path class="cls-2" d="M28,13.3a1.47,1.47,0,1,0,1.47,1.47A1.47,1.47,0,0,0,28,13.3Z"/><path class="cls-2" d="M21.49,15.18a6.18,6.18,0,1,0,6.18,6.18A6.18,6.18,0,0,0,21.49,15.18Zm0,10.13a4,4,0,1,1,4-3.95A4,4,0,0,1,21.49,25.31Z"/><path class="cls-2" d="M26.39,33.9h-10a7.54,7.54,0,0,1-7.53-7.54v-10a7.54,7.54,0,0,1,7.53-7.53h10a7.54,7.54,0,0,1,7.54,7.53v10A7.55,7.55,0,0,1,26.39,33.9Zm-10-22.72a5.18,5.18,0,0,0-5.17,5.17v10a5.18,5.18,0,0,0,5.17,5.18h10a5.18,5.18,0,0,0,5.18-5.18v-10a5.18,5.18,0,0,0-5.18-5.17Z"/></g></g></svg>