<svg xmlns="http://www.w3.org/2000/svg" viewBox="0 0 42.78 42.78"><defs><style>.cls-1{fill:#ffbf0f;}.cls-2{fill:#fff;}</style></defs><g id="Layer_2" data-name="Layer 2"><g id="Capa_1" data-name="Capa 1"><circle class="cls-1" cx="21.39" cy="21.39" r="21.39"/><path class="cls-2" d="M32.49,18.92a4.63,4.63,0,0,1-.65,0,7.16,7.16,0,0,1-6-3.23v11a8.14,8.14,0,1,1-8.14-8.13h0l.51,0v4a4.4,4.4,0,0,0-.51-.05,4.15,4.15,0,1,0,0,8.3A4.25,4.25,0,0,0,22,26.78l0-18.69h3.84a7.14,7.14,0,0,0,6.58,6.38v4.45"/></g></g></svg>