<svg xmlns="http://www.w3.org/2000/svg" viewBox="0 0 22.03 16.46"><defs><style>.cls-1{opacity:0.27;}</style></defs><g id="Layer_2" data-name="Layer 2"><g id="Capa_2" data-name="Capa 2"><path class="cls-1" d="M18.67,2.34V3.7h-14A1.9,1.9,0,0,0,3,5.08L0,14.25a.62.62,0,0,1,0-.13V2.34A2.18,2.18,0,0,1,2,0H16.69A2.17,2.17,0,0,1,18.67,2.34Z"/><path class="cls-1" d="M17.87,16.46H1.7A1.36,1.36,0,0,1,.61,14.59l3-9.23a1.2,1.2,0,0,1,1.1-.88H20.86A1.36,1.36,0,0,1,22,6.35l-3,9.22A1.19,1.19,0,0,1,17.87,16.46Z"/></g></g></svg>