<svg xmlns="http://www.w3.org/2000/svg" viewBox="0 0 22.51 22.51"><defs><style>.cls-1{opacity:0.27;}</style></defs><g id="Layer_2" data-name="Layer 2"><g id="Capa_2" data-name="Capa 2"><g class="cls-1"><path d="M11.25,0A11.26,11.26,0,1,0,22.51,11.26,11.26,11.26,0,0,0,11.25,0Zm0,20A8.76,8.76,0,0,1,5.67,4.51L8,8.06a4.54,4.54,0,0,0-1.31,3.2,4.59,4.59,0,0,0,4.58,4.59,4.66,4.66,0,0,0,1.59-.28l2.3,3.54A8.73,8.73,0,0,1,11.25,20Zm5.59-2-2.3-3.55a4.59,4.59,0,0,0-3.29-7.79A4.65,4.65,0,0,0,9.67,7L7.38,3.41a8.52,8.52,0,0,1,3.87-.91A8.76,8.76,0,0,1,16.84,18Z"/></g></g></g></svg>